<?xml version="1.0" standalone="no"?>
<!DOCTYPE svg PUBLIC "-//W3C//DTD SVG 1.1//EN" "http://www.w3.org/Graphics/SVG/1.1/DTD/svg11.dtd" >
<svg xmlns="http://www.w3.org/2000/svg">
<metadata>
Created by FontForge 20120731 at Fri Jul 28 10:11:17 2017
 By admin
</metadata>
<defs>
<font id="iconfont" horiz-adv-x="1024" >
  <font-face 
    font-family="iconfont"
    font-weight="500"
    font-stretch="normal"
    units-per-em="1024"
    panose-1="2 0 6 3 0 0 0 0 0 0"
    ascent="896"
    descent="-128"
    x-height="792"
    bbox="0 -147 1325 896"
    underline-thickness="0"
    underline-position="0"
    unicode-range="U+0078-E868"
  />
<missing-glyph 
 />
    <glyph glyph-name=".notdef" 
 />
    <glyph glyph-name=".notdef" 
 />
    <glyph glyph-name=".null" horiz-adv-x="0" 
 />
    <glyph glyph-name="nonmarkingreturn" horiz-adv-x="341" 
 />
    <glyph glyph-name="x" unicode="x" horiz-adv-x="1001" 
d="M281 543q-27 -1 -53 -1h-83q-18 0 -36.5 -6t-32.5 -18.5t-23 -32t-9 -45.5v-76h912v41q0 16 -0.5 30t-0.5 18q0 13 -5 29t-17 29.5t-31.5 22.5t-49.5 9h-133v-97h-438v97zM955 310v-52q0 -23 0.5 -52t0.5 -58t-10.5 -47.5t-26 -30t-33 -16t-31.5 -4.5q-14 -1 -29.5 -0.5
t-29.5 0.5h-32l-45 128h-439l-44 -128h-29h-34q-20 0 -45 1q-25 0 -41 9.5t-25.5 23t-13.5 29.5t-4 30v167h911zM163 247q-12 0 -21 -8.5t-9 -21.5t9 -21.5t21 -8.5q13 0 22 8.5t9 21.5t-9 21.5t-22 8.5zM316 123q-8 -26 -14 -48q-5 -19 -10.5 -37t-7.5 -25t-3 -15t1 -14.5
t9.5 -10.5t21.5 -4h37h67h81h80h64h36q23 0 34 12t2 38q-5 13 -9.5 30.5t-9.5 34.5q-5 19 -11 39h-368zM336 498v228q0 11 2.5 23t10 21.5t20.5 15.5t34 6h188q31 0 51.5 -14.5t20.5 -52.5v-227h-327z" />
    <glyph glyph-name="daipingjia" unicode="&#xe764;" 
d="M788 476h-2h-8h-10v-593h-673v677h593v31h-624v-738h734v623h-10zM390 263l-3 -3l-29 -110l111 29l443 441l-81 82zM453 206h-2l-36 38v0l416 415l38 -39zM894 748l-56 -39l82 -82l39 56z" />
    <glyph glyph-name="suoyoudingdan" unicode="&#xe60e;" 
d="M427 537h198q12 0 20 6.5t8 15.5t-8 15.5t-20 6.5h-198q-12 0 -20 -6.5t-8 -15.5t8 -15.5t20 -6.5zM926 -107h-801q-7 0 -12 4.5t-5 10.5v816q0 6 5 10.5t12 4.5h801q7 0 12 -4.5t5 -10.5v-816q0 -6 -5 -10.5t-12 -4.5zM139 763q-24 0 -41 -15.5t-17 -37.5v-788
q0 -22 17 -37.5t41 -15.5h773q24 0 41 15.5t17 37.5v788q0 22 -17 37.5t-41 15.5h-773zM279 405h-24q-8 0 -14 -4.5t-6 -11t6 -11t14 -4.5h24q8 0 14 4.5t6 11t-6 11t-14 4.5zM279 251h-24q-8 0 -14 -4.5t-6 -10.5t6 -10.5t14 -4.5h24q8 0 14 4.5t6 10.5t-6 10.5t-14 4.5z
M279 98h-24q-8 0 -14 -4.5t-6 -11t6 -11t14 -4.5h24q8 0 14 4.5t6 11t-6 11t-14 4.5zM777 98h-415q-8 0 -14 -4.5t-6 -11t6 -11t14 -4.5h415q9 0 14.5 4.5t5.5 11t-5.5 11t-14.5 4.5zM777 251h-415q-8 0 -14 -4.5t-6 -11t6 -11t14 -4.5h415q9 0 14.5 4.5t5.5 11t-5.5 11
t-14.5 4.5zM777 404h-415q-8 0 -14 -4.5t-6 -10.5t6 -10.5t14 -4.5h415q9 0 14.5 4.5t5.5 10.5t-5.5 10.5t-14.5 4.5z" />
    <glyph glyph-name="daipingjia1" unicode="&#xe60a;" 
d="M256 -51q-30 0 -51 21.5t-21 50.5v500q0 27 17.5 47t43.5 24v0l14 1h1h289q5 0 8.5 -3.5t3.5 -8.5t-3.5 -8.5t-8.5 -3.5h-289h-1l-14 -1v0q-16 -3 -27 -16.5t-11 -30.5v-500q0 -20 14.5 -34t34.5 -14h537q20 0 34 14t14 34v280q0 5 3.5 8.5t8.5 3.5t8.5 -3.5t3.5 -8.5
v-280q0 -29 -21 -50.5t-51 -21.5h-537zM387 88q-12 0 -18 5q-7 8 -4 32q3 15 9 40q7 27 15 53l1 3l349 349l40 48v0q10 10 24 10q17 0 30 -13l58 -58q11 -11 12 -26q2 -16 -9 -27l-1 -1l-46 -40l-349 -350h-3q-79 -25 -108 -25zM410 206q-15 -48 -20 -79l-4 -17l18 3
q30 5 78 20l19 6l-86 86zM438 236l74 -74l293 292l-63 63v0v1l-11 11zM752 550l1 -6q1 -6 6 -10l51 -52q5 -4 10 -5l6 -1l5 4l50 44l-2 7q-1 5 -5 9l-58 59q-4 3 -9 5l-7 2z" />
    <glyph glyph-name="zoom" unicode="&#xe60d;" 
d="M410.5 159q-91.5 0 -169 45t-123 122.5t-45.5 169t45.5 169.5t123 123t169 45t169 -45t123 -123t45.5 -169.5t-45.5 -169t-123 -122.5t-169 -45zM410.5 782q-118.5 0 -202 -84t-83.5 -202t83.5 -202t202 -84t202 84t83.5 202t-83.5 202t-202 84zM923 -61q-11 0 -18 8
l-302 301q-8 8 -8 18.5t8 18t18.5 7.5t18.5 -7l301 -302q8 -7 8 -18t-7.5 -18.5t-18.5 -7.5z" />
    <glyph glyph-name="jiedanrenxinxi" unicode="&#xe868;" 
d="M512 832q-91 0 -174 -35.5t-143 -95.5t-95.5 -143t-35.5 -174t35.5 -174t95.5 -143t143 -95.5t174 -35.5t174 35.5t143 95.5t95 143t35 174t-35 174t-95 143t-143 95.5t-174 35.5zM512 -22q-110 0 -203.5 54.5t-148 148t-54.5 203.5t54.5 203.5t148 148t203.5 54.5
t203.5 -54.5t148 -148t54.5 -203.5t-54.5 -203.5t-148 -148t-203.5 -54.5zM598 350q43 23 69.5 66t26.5 94q0 76 -53.5 129t-129 53t-128.5 -53t-53 -129q0 -51 26 -94t70 -66q-70 -22 -121 -74.5t-70 -123.5q-2 -9 2 -16.5t13 -9.5q2 -1 5 -1q16 0 20 16q22 80 88 130
t148.5 50t148.5 -50t88 -130q2 -9 9.5 -13t16 -2t13 9.5t2.5 16.5q-20 71 -71 123.5t-120 74.5zM372 510q0 58 41 99t99 41t99 -41t41 -99t-41 -99t-99 -41t-99 41t-41 99z" />
    <glyph glyph-name="dianjishangchuan" unicode="&#xe607;" 
d="M0 400h1024v-32h-1024v32zM528 896v-1024h-32v1024h32z" />
    <glyph glyph-name="shouji" unicode="&#xe642;" 
d="M709 -34h-394q-39 0 -66.5 27.5t-27.5 66.5v648q0 39 27.5 66.5t66.5 27.5h394q39 0 66.5 -27.5t27.5 -66.5v-648q0 -39 -27.5 -66.5t-66.5 -27.5zM775 708q0 27 -19 46.5t-47 19.5h-394q-28 0 -47 -19.5t-19 -46.5v-42h526v42zM775 638h-526v-479h526v479zM775 130h-526
v-70q0 -27 19 -46.5t47 -19.5h394q28 0 47 19.5t19 46.5v70zM512 32q-16 0 -27 11t-11 26.5t11 26.5t27 11t27 -11t11 -26.5t-11 -26.5t-27 -11z" />
    <glyph glyph-name="daishouhuo" unicode="&#xe601;" 
d="M452 524h-32v-188h-301v-32h333v220zM981 779h-561v-146h-192q-32 0 -59.5 -11t-46 -27t-33.5 -38t-24 -40.5t-15.5 -38t-8 -27t-2.5 -11.5v-349h22v-2h182q2 -46 36 -78.5t81 -32.5t81 32.5t37 78.5h153q3 -46 37 -78.5t81 -32.5t81 32.5t37 78.5h106v2h8v688zM71 132
v304q2 10 5.5 23.5t16 40.5t28.5 47.5t44 37t63 16.5h224v146h497v-626h-85q-9 40 -41 66.5t-74 26.5t-74 -26.5t-41 -66.5h-159q-8 40 -40.5 66.5t-74.5 26.5t-74 -26.5t-41 -66.5h-174v11zM360.5 10q-35.5 0 -61 25.5t-25.5 61t25.5 60.5t61 25t60.5 -25t25 -60.5t-25 -61
t-60.5 -25.5zM749.5 10q-35.5 0 -61 25.5t-25.5 61t25.5 60.5t61 25t60.5 -25t25 -60.5t-25 -61t-60.5 -25.5z" />
    <glyph glyph-name="fangdajing" unicode="&#xe617;" 
d="M435 95q-75 0 -144 29q-66 28 -117 79t-79 117q-29 68 -29 143t29 144q28 66 79 117t117 79q69 29 144 29t143 -29q66 -28 117 -79t79 -117q29 -69 29 -144t-29 -143q-28 -66 -79 -117t-117 -79q-68 -29 -143 -29zM434.5 791q-88.5 0 -164 -44t-119.5 -119.5t-44 -164.5
t44 -164.5t119.5 -119.5t164 -44t164.5 44t119.5 119.5t43.5 164.5t-43.5 164.5t-119.5 119.5t-164.5 44zM958 -26q-3 -4 -17 -16q-6 -6 -13 -12.5t-9 -9.5l-214 215l-18 54l58 -17l213 -214v0z" />
    <glyph glyph-name="daifukuan" unicode="&#xe688;" 
d="M537 -63h-389q-43 0 -73 30t-30 73v753q0 43 30 73t73 30h636q42 0 72 -30t30 -73v-465q0 -6 -4.5 -11t-11.5 -5t-12 5t-5 11v465q0 29 -20 49.5t-49 20.5h-636q-29 0 -49.5 -20.5t-20.5 -49.5v-753q0 -29 20.5 -49.5t49.5 -20.5h389q6 0 11 -4.5t5 -11.5t-5 -12t-11 -5z
M787.5 -128q-79.5 0 -135.5 56t-56 135.5t56 136t135.5 56.5t135.5 -56.5t56 -136t-56 -135.5t-135.5 -56zM787.5 223q-65.5 0 -112 -47t-46.5 -112.5t46.5 -112t112 -46.5t112 46.5t46.5 112t-46.5 112.5t-112 47zM787.5 48q-6.5 0 -11.5 4.5t-5 11.5v98q0 7 5 12t11.5 5
t11.5 -5t5 -12v-98q0 -7 -5 -11.5t-11.5 -4.5zM867 47h-80q-6 0 -11 5t-5 12t5 11.5t11 4.5h80q7 0 12 -4.5t5 -11.5t-5 -12t-12 -5zM445 451q-5 0 -10 4t-6 10.5t3 12.5l167 217q10 13 23 3q6 -4 6.5 -10.5t-3.5 -12.5l-167 -217q-4 -7 -13 -7zM445.5 131q-6.5 0 -11.5 5
t-5 12v314l-164 213q-4 6 -3 12.5t6 10.5q14 10 24 -3l166 -217q4 -4 4 -10v-320q0 -7 -5 -12t-11.5 -5zM616 447h-341q-7 0 -12 5t-5 11.5t5 11.5t12 5h341q7 0 12 -5t5 -11.5t-5 -11.5t-12 -5zM643 324h-395q-7 0 -12 4.5t-5 11.5t5 12t12 5h395q7 0 11.5 -5t5 -12
t-4.5 -11.5t-12 -4.5zM643 324z" />
    <glyph glyph-name="fenlei" unicode="&#xe623;" 
d="M797 618q0 11 -8 18.5t-18 7.5h-357q-11 0 -18.5 -7.5t-7.5 -18.5t7.5 -18.5t18.5 -7.5h357q10 0 18 7.5t8 18.5zM265 618.5q0 -10.5 7.5 -18.5t18.5 -8h14q11 0 18.5 8t7.5 18.5t-7.5 18.5t-18.5 8h-14q-11 0 -18.5 -8t-7.5 -18.5zM797 421.5q0 10.5 -8 18t-18 7.5h-357
q-11 0 -18.5 -7.5t-7.5 -18t7.5 -18.5t18.5 -8h357q10 0 18 8t8 18.5zM265 422q0 -11 7.5 -18.5t18.5 -7.5h14q11 0 18.5 7.5t7.5 18.5t-7.5 18.5t-18.5 7.5h-14q-11 0 -18.5 -7.5t-7.5 -18.5zM265 225.5q0 -10.5 7.5 -18.5t18.5 -8h14q11 0 18.5 8t7.5 18.5t-7.5 18
t-18.5 7.5h-14q-11 0 -18.5 -7.5t-7.5 -18zM797 225q0 11 -8 18.5t-18 7.5h-357q-11 0 -18.5 -7.5t-7.5 -18.5t7.5 -18.5t18.5 -7.5h357q10 0 18 7.5t8 18.5z" />
    <glyph glyph-name="vpn_key" unicode="&#xe632;" horiz-adv-x="1366" 
d="M1019.5 712.5q-6.5 6.5 -15.5 6.5t-16 -6l-54 -55l-70 70q-7 7 -16 7t-15.5 -6.5t-6.5 -16t6 -15.5l71 -70l-180 -180q-68 57 -158 53t-153 -68q-68 -68 -68 -163.5t68 -163.5t163.5 -68t163.5 68q64 63 68 153t-53 158l195 195v0v0l70 70q7 7 7 16t-6.5 15.5zM708 136
q-55 -55 -132.5 -55t-132.5 55t-55 132.5t55 132.5t132.5 55t132.5 -55t55 -132.5t-55 -132.5z" />
    <glyph glyph-name="fanhui" unicode="&#xe600;" 
d="M533 -9l-393 393l393 393q9 9 9 22.5t-9.5 23t-23 9.5t-22.5 -9l-412 -412q-11 -11 -9 -26q-2 -16 9 -28l412 -412q9 -9 22.5 -9t23 9.5t9.5 23t-9 22.5z" />
    <glyph glyph-name="mail" unicode="&#xe625;" 
d="M896 702h-768q-27 0 -46 -19t-19 -46v-509q0 -26 19 -45.5t46 -19.5h768q27 0 46 19.5t19 45.5v509q0 27 -19 46t-46 19zM920 128v0l-284 284l284 212v-496zM104 128v497l285 -213l-285 -284v0zM419 385q2 1 3 2l47 -35q19 -14 43 -14t43 14l48 35l2 -2l281 -281h-748z
M896 661h6l-372 -277q-18 -13 -36 0l-370 277h4h768z" />
    <glyph glyph-name="duihao" unicode="&#xe602;" 
d="M512 -63q-91 0 -174 35.5t-143 95.5t-95.5 142.5t-35.5 173.5t35.5 174t95.5 143t143 95.5t174 35.5t173.5 -35.5t142.5 -95.5t95.5 -143t35.5 -174t-35.5 -173.5t-95.5 -142.5t-142.5 -95.5t-173.5 -35.5zM512 787q-109 0 -202 -54t-147 -147t-54 -202t54 -201.5
t147 -146.5t202 -54t201.5 54t146.5 146.5t54 201.5t-54 202t-146.5 147t-201.5 54zM427 188l-184 172l40 40l143 -142l315 322l40 -40q-347 -352 -354 -352z" />
    <glyph glyph-name="suo" unicode="&#xe61d;" 
d="M766 511v69q0 105 -74.5 179.5t-179.5 74.5t-179.5 -74.5t-74.5 -179.5v-69q-38 0 -65.5 -27t-27.5 -66v-369q0 -39 27.5 -66t65.5 -27h508q38 0 65.5 27t27.5 66v369q0 39 -27.5 66t-65.5 27zM304 580q0 86 61 147t147 61t147 -61t61 -147v-69h-416v69zM812 49
q0 -19 -13.5 -33t-32.5 -14h-508v0q-19 0 -32.5 14t-13.5 33v369q0 19 13.5 33t32.5 14h508v0q19 0 32.5 -14t13.5 -33v-369zM512 372v0q-29 0 -49 -20t-20 -49q0 -23 12.5 -40.5t33.5 -24.5v-97h46v97q21 7 33.5 24.5t12.5 40.5q0 29 -20 49t-49 20zM512 280
q-10 0 -16.5 6.5t-6.5 16t6.5 16.5t16.5 7t16.5 -7t6.5 -16.5t-6.5 -16t-16.5 -6.5z" />
    <glyph glyph-name="erji" unicode="&#xe622;" horiz-adv-x="1325" 
d="M663 896q-78 0 -144 -15.5t-112.5 -40t-84 -59t-60 -68.5t-39.5 -73.5t-25 -69t-12 -59.5t-4.5 -40t-0.5 -15v0v-231q-30 11 -59 11q-101 0 -120 -53l-2 -11v-227q1 -3 2.5 -8t10 -17.5t21 -22t36 -17.5t53 -8t52.5 7.5t35 18t19.5 22t9.5 18t2 7.5v511v21.5t6.5 52
t20 73.5t44 78t74 74t115 52.5t162.5 21.5q70 0 130 -13t101 -34.5t74 -49.5t52.5 -59t33.5 -61.5t20 -58.5t9 -49.5t2 -34.5v-13v-511q1 -3 2 -8t8.5 -17.5t19.5 -22t35.5 -17.5t54.5 -8t55 7.5t35.5 18t19 22t9 17.5t1.5 8v227q0 3 -0.5 7.5t-7 15.5t-18 19.5t-36 16
t-58.5 7.5q-15 0 -30 -3t-23 -5l-8 -3v229v0q1 82 -37 174q-84 205 -307 252q-64 14 -137 14zM301 201v-296q0 -4 1 -9.5t8.5 -14.5t21 -9t21 8t8.5 17v8v296q0 3 -0.5 8.5t-8 14.5t-21 9t-21 -8t-8.5 -16zM964 201v-296q0 -4 0.5 -9.5t8 -14.5t21 -9t21 8t8.5 17l1 8v296
q0 3 -1 8.5t-8.5 14.5t-21 9t-21 -8t-7.5 -16l-1 -8v0z" />
    <glyph glyph-name="barrage" unicode="&#xe6e3;" 
d="M288 320h128q13 0 22.5 9.5t9.5 22.5t-9.5 22.5t-22.5 9.5h-128q-13 0 -22.5 -9.5t-9.5 -22.5t9.5 -22.5t22.5 -9.5zM288 192h128q13 0 22.5 9.5t9.5 22.5t-9.5 22.5t-22.5 9.5h-128q-13 0 -22.5 -9.5t-9.5 -22.5t9.5 -22.5t22.5 -9.5zM288 448h256q13 0 22.5 9.5
t9.5 22.5t-9.5 22.5t-22.5 9.5h-256q-13 0 -22.5 -9.5t-9.5 -22.5t9.5 -22.5t22.5 -9.5zM832 128h-640v512v0h640v-512zM832 704h-640v0q-26 0 -45 -18.5t-19 -45.5v-512q0 -27 19 -45.5t45 -18.5v0h640v0q26 0 45 18.5t19 45.5v512q0 27 -19 45.5t-45 18.5v0z" />
    <glyph glyph-name="businesscard" unicode="&#xe6e6;" 
d="M736 544h-192q-13 0 -22.5 -9.5t-9.5 -22.5t9.5 -22.5t22.5 -9.5h192q13 0 22.5 9.5t9.5 22.5t-9.5 22.5t-22.5 9.5zM736 416h-128q-13 0 -22.5 -9.5t-9.5 -22.5t9.5 -22.5t22.5 -9.5h128q13 0 22.5 9.5t9.5 22.5t-9.5 22.5t-22.5 9.5zM736 288h-128q-13 0 -22.5 -9.5
t-9.5 -22.5t9.5 -22.5t22.5 -9.5h128q13 0 22.5 9.5t9.5 22.5t-9.5 22.5t-22.5 9.5zM832 128h-640v512h640v-512v0v0zM832 704h-640v0q-26 0 -45 -18.5t-19 -45.5v-512q0 -27 19 -45.5t45 -18.5h640v0q26 0 45 18.5t19 45.5v512q0 27 -19 45.5t-45 18.5v0v0zM480 274h-192
v21q57 23 96 23t96 -23v-21zM355 454q0 11 7.5 18.5t18 7.5t18 -7.5t7.5 -18.5v-42v0q0 -10 -7 -17.5t-18 -7.5v0q-11 0 -18.5 7.5t-7.5 17.5v42zM512 350q-26 11 -53 19q11 21 11 43v42q0 37 -26 63.5t-63 26.5t-63.5 -26.5t-26.5 -63.5v-42q0 -23 13 -44q-31 -10 -48 -17
q-13 -6 -22.5 -20t-9.5 -29v-56l2 -4q5 -15 17 -23.5t26 -8.5h230q17 0 30.5 12t14.5 30v50q0 16 -9 29.5t-23 18.5v0z" />
    <glyph glyph-name="close" unicode="&#xe6e9;" 
d="M544 397l285 284q9 10 9 23t-9.5 22.5t-22.5 9.5t-22 -9l-285 -285l-284 285q-10 9 -23 9t-22.5 -9.5t-9.5 -22.5t9 -23l285 -284l-285 -285q-9 -9 -9 -22t9.5 -22.5t22.5 -9.5t23 9l284 285l285 -285q9 -9 22.5 -9t22.5 9t9 22.5t-9 22.5z" />
    <glyph glyph-name="jiedanbaozhengjin" unicode="&#xe675;" 
d="M512 896q-104 0 -199 -40.5t-163.5 -109t-109 -163.5t-40.5 -199t40.5 -199t109 -163.5t163.5 -109t199 -40.5q116 0 221 50q7 3 7 11q0 5 -3.5 8.5t-9.5 3.5q-2 0 -5 -1q-41 -20 -102 -34t-107 -14h-1q-99 0 -189.5 39t-155.5 104t-104 155.5t-39 189.5t39 189.5
t104 155.5t155.5 104t189.5 39t189.5 -39t155.5 -104t104 -155.5t39 -189.5q0 -125 -60 -234q-2 -3 -2 -6q0 -5 3.5 -8.5t8.5 -3.5q8 0 11 6q26 48 44.5 120t18.5 126v0q0 104 -40.5 199t-109 163.5t-163.5 109t-199 40.5zM764 372h-189q12 22 19 38q1 2 1 4h163q5 0 9 3.5
t4 8.5v24q0 6 -4 9.5t-9 3.5h-92q11 18 33 56l6 11q1 2 1 6t-2 7h39v0q5 0 8.5 3.5t3.5 8.5v24q0 5 -3.5 8.5t-8.5 3.5h-124q-14 29 -33 54q-4 5 -10 5h-2l-24 -5q-10 -2 -10 -12q0 -3 2 -6q11 -16 21 -36h-113v0q-5 0 -8.5 -3.5t-3.5 -8.5v-24q0 -5 3.5 -8.5t8.5 -3.5h34
q-5 -4 -5 -10q0 -4 3 -7q24 -32 39 -63h-92v0q-5 0 -8.5 -3.5t-3.5 -9.5v-24q0 -5 3.5 -8.5t8.5 -3.5h113q-10 -21 -21 -42h-92v0l-4 25q-2 10 -12 10q-2 0 -4 -1q-24 -8 -38 -13v97h50v0q5 0 8.5 4t3.5 9v24q0 5 -3.5 9t-8.5 4h-50v102q0 5 -3.5 8.5t-8.5 3.5h-25v0
q-5 0 -8.5 -3.5t-3.5 -8.5v-102h-57q-5 0 -8.5 -4t-3.5 -9v-24q0 -5 3.5 -9t8.5 -4h57v-114q-34 -11 -68 -21q-9 -3 -9 -12q0 -2 1 -4l8 -26q3 -8 12 -8h4l52 18v-141h-20h-26v0q-5 0 -9 -3.5t-4 -8.5q0 -3 2 -5q5 -13 7 -22q2 -10 12 -10q47 -1 65 6q22 10 22 40v161l40 14
v-19q0 -5 3.5 -8.5t8.5 -3.5h68q-17 -28 -37 -53q-3 -4 -3 -8q0 -9 9 -12q47 -13 94 -32q-54 -26 -140 -37q-4 5 -10 5q-5 0 -8.5 -3.5t-3.5 -8.5t3.5 -8.5t8.5 -3.5h2q7 -9 10 -20q3 -10 14 -8q115 17 181 60q71 -32 111 -61q3 -2 7 -2q5 0 8 3l20 21q4 3 4 8q0 7 -5 10
q-41 28 -103 57q33 37 50 93h61v0q5 0 9 3.5t4 8.5v24v0q0 5 -3.5 9t-9.5 4zM568 474q-13 33 -42 69h129q-20 -42 -47 -80h-41q2 3 2 7q0 2 -1 4zM603 252q-41 16 -83 29q15 21 27 42h103q-17 -43 -47 -71zM851 25zM788 25.5q0 -26.5 18.5 -45t44.5 -18.5t44.5 18.5t18.5 45
t-18.5 44.5t-44.5 18t-44.5 -18t-18.5 -44.5z" />
    <glyph glyph-name="document" unicode="&#xe61f;" 
d="M166 826v-884h692v642l-6 6l-230 230l-6 6h-450zM205 787h384v-230h230v-576h-614v806zM627 760l165 -165h-165v165z" />
    <glyph glyph-name="cloud-test" unicode="&#xe667;" 
d="M512 -109q-100 0 -191.5 39t-157.5 105t-105 157.5t-39 191.5t39 191.5t105 157.5t157.5 105t191.5 39t191.5 -39t157.5 -105t105 -157.5t39 -191.5t-39 -191.5t-105 -157.5t-157.5 -105t-191.5 -39zM512 813q-116 0 -215 -57.5t-156.5 -156.5t-57.5 -215t57.5 -215
t156.5 -157t215 -58t215 58t157 157t58 215t-58 215t-157 156.5t-215 57.5zM303 490q42 -34 78 -66q-13 -13 -29 -31q-35 36 -72 70zM344 349q24 -12 38 -18q-24 -89 -47 -179l-40 18q31 88 49 179zM325 615q29 -25 74 -67q-16 -16 -29 -30q-35 39 -70 72zM484 521h36v-120
q0 -74 -14 -119q64 -49 110 -87l-26 -30q-47 44 -97 85q-30 -60 -108 -106q-11 16 -24 31q73 42 99 93q24 44 24 132v121zM408 597h183v-307h-35v273h-113v-273h-35v307zM709 624h36v-414q0 -56 -54 -56q-25 0 -56 2q-2 20 -7 39q32 -3 53 -3q28 0 28 28v404v0zM667 262h-34
v322h34v-322z" />
    <glyph glyph-name="renzheng" unicode="&#xe609;" 
d="M501 -42l-6 3q-9 4 -22 10.5t-45.5 24.5t-62 37.5t-64.5 49t-60 58.5t-42.5 66t-17.5 73v436h165l156 95l155 -95h148v-32h-157l-146 89l-147 -89h-142v-404q0 -40 27 -82.5t61.5 -73.5t80.5 -61.5t71.5 -44.5t47.5 -24q22 10 48 24t72 44.5t80.5 61.5t61.5 73.5t27 82.5
v219h32v-219q0 -36 -17.5 -73t-42.5 -66t-60 -58.5t-65 -49t-62 -37.5t-45.5 -24.5t-21.5 -10.5zM505 276l-171 171l23 22l148 -148l289 292l23 -23z" />
    <glyph glyph-name="ziliao" unicode="&#xe626;" horiz-adv-x="1063" 
d="M923 85l1 -1l-71 -71q-1 -1 -1 -2l-4 -4l-121 -125q-14 -10 -26 -10q-15 0 -33 19l-5 6l-144 150l31 32l150 -156l2 -2l26 28l89 91l-4 14l19 1l29 29l-1 2l172 176l31 -32zM943 746q0 41 -4 52q-14 33 -39 45q-4 2 -14 5l-3 1v0q-4 0 -8 1h-762q-5 -1 -9 -1l-2 -1
q-10 -3 -14 -5q-26 -12 -39 -45q-4 -9 -4 -45v-128v-585q0 -53 7 -69q14 -31 56 -44q5 -1 22 -1h6h342v-46h-347h-7q-18 0 -29 3q-61 18 -84 69q-11 25 -11 88v170v543q0 45 8 63q20 49 61 69q7 3 19 7h2q4 2 8 2l3 2h786l2 -2q4 0 8 -2h2q13 -4 19 -7q41 -20 62 -69
q8 -20 8 -70v-431h-45v431zM297 222h213v-45h-213v45zM297 661h396v-45h-396v45zM693 396h-396v46h396v-46z" />
  </font>
</defs>
</svg>
